<?xml version="1.0" encoding="UTF-8"?>
<svg xmlns="http://www.w3.org/2000/svg" xmlns:xlink="http://www.w3.org/1999/xlink" viewBox="0 0 250 250">
  <defs>
    <style>
      .cls-1 {
        stroke: #f2f2f2;
        stroke-width: 4px;
      }

      .cls-1, .cls-2, .cls-3, .cls-4, .cls-5 {
        stroke-miterlimit: 10;
      }

      .cls-1, .cls-4, .cls-5 {
        fill: none;
        stroke-linecap: round;
      }

      .cls-6 {
        fill: url(#linear-gradient);
      }

      .cls-6, .cls-7, .cls-8, .cls-9, .cls-10, .cls-11, .cls-12, .cls-13, .cls-14, .cls-15 {
        stroke-width: 0px;
      }

      .cls-7 {
        fill: #36a7c1;
      }

      .cls-2, .cls-3 {
        stroke: #000;
      }

      .cls-2, .cls-9 {
        fill: #e2e2e2;
      }

      .cls-8 {
        fill: #183755;
      }

      .cls-3 {
        fill: #f8f8f8;
      }

      .cls-9 {
        opacity: .19;
      }

      .cls-10 {
        fill: #000;
      }

      .cls-11 {
        fill: url(#linear-gradient-4);
      }

      .cls-12 {
        fill: url(#linear-gradient-2);
      }

      .cls-13 {
        fill: url(#linear-gradient-3);
      }

      .cls-14 {
        fill: url(#linear-gradient-5);
      }

      .cls-4 {
        stroke: #04172b;
        stroke-width: 5px;
      }

      .cls-15 {
        fill: #fff;
      }

      .cls-5 {
        stroke: #183755;
        stroke-width: 9px;
      }
    </style>
    <linearGradient id="linear-gradient" x1="39.94" y1="218.71" x2="39.94" y2="27.76" gradientUnits="userSpaceOnUse">
      <stop offset="0" stop-color="#04172b"/>
      <stop offset="1" stop-color="#1f527e"/>
    </linearGradient>
    <linearGradient id="linear-gradient-2" x1="35.35" y1="214.12" x2="35.35" y2="23.18" xlink:href="#linear-gradient"/>
    <linearGradient id="linear-gradient-3" x1="143.91" y1="108.06" x2="248.04" y2="108.06" gradientTransform="translate(209.04 -108.37) rotate(60)" xlink:href="#linear-gradient"/>
    <linearGradient id="linear-gradient-4" x1="204.51" y1="201.38" x2="222.37" y2="201.38" gradientTransform="translate(0 296.65) scale(1 -.41)" gradientUnits="userSpaceOnUse">
      <stop offset="0" stop-color="#e47a2e"/>
      <stop offset="1" stop-color="#fffffd"/>
    </linearGradient>
    <linearGradient id="linear-gradient-5" x1="209.22" y1="188.84" x2="217.66" y2="188.84" gradientTransform="translate(0 296.65) scale(1 -.41)" gradientUnits="userSpaceOnUse">
      <stop offset="0" stop-color="#0d0d0d"/>
      <stop offset="1" stop-color="#707070"/>
    </linearGradient>
  </defs>
  <g id="Background">
    <rect class="cls-7" width="250" height="250" rx="22.29" ry="22.29"/>
  </g>
  <g id="Layer_4" data-name="Layer 4">
    <rect class="cls-2" x="30.94" y="27.76" width="162" height="190.94" rx="13.47" ry="13.47"/>
    <path class="cls-6" d="M44.41,27.76h4.53v190.94h-4.85c-7.26,0-13.15-5.89-13.15-13.15V41.24c0-7.43,6.04-13.47,13.47-13.47Z"/>
    <g id="Layer_6" data-name="Layer 6">
      <g>
        <path class="cls-15" d="M107.84,87.77h11.73v12.47h-11.73v-12.47ZM115.62,89.96c.3-.16.58-.31.89-.36.25-.05.5-.08.75-.1.15,0,.3.03.45.06.28.04.53.14.77.3.12.08.24.15.36.24-.02-.05-.04-.09-.07-.12-.02-.04-.06-.07-.08-.11-.3-.47-.7-.87-1.15-1.19-.27-.19-.56-.34-.86-.48-.39-.18-.81-.26-1.24-.31-.43-.05-.87-.05-1.3.05-.21.05-.43.1-.64.15-.44.11-.83.31-1.21.54-.19.11-.38.23-.55.38-.27.23-.53.47-.77.74-.2.23-.37.5-.55.75-.1.14-.16.3-.25.46-.19-.05-.32-.19-.45-.31-.22-.2-.42-.43-.63-.63-.11-.11-.25-.07-.3.08-.01.04-.02.07-.02.11,0,.35-.02.7.04,1.05.08.48.21.94.32,1.41.01.04,0,.11-.02.14-.13.17-.2.37-.21.59-.02.37.07.72.2,1.07.05.13.13.25.02.39-.03.04-.02.12-.04.17-.01.04-.02.09-.05.12-.2.21-.41.42-.62.61-.13.12-.29.21-.43.31-.06.04-.1.09-.05.16.04.05.08.1.14.12.3.13.6.2.93.1.04-.01.1,0,.14.03.2.1.39.22.62.23.07,0,.14,0,.21,0,.04,0,.08,0,.1.03.16.14.35.17.55.19.03,0,.07,0,.1,0-.02.04-.04.06-.07.08-.16.1-.32.19-.48.29-.13.08-.17.19-.12.3.04.08.25.19.33.16.23-.07.42-.19.59-.36.07-.07.11-.18.25-.17.5.04.97-.06,1.37-.38.15-.12.3-.26.41-.41.14-.19.24-.4.35-.6.03-.05.04-.07.1-.04.22.09.36.26.45.47.3.71.2,1.39-.22,2.02-.21.31-.47.57-.77.79-.37.28-.77.5-1.2.69-.19.08-.38.15-.57.22-.11.04-.22.08-.35.14.62,0,1.2,0,1.78-.14.26-.06.51-.11.77-.16.36-.08.71-.19,1.05-.35.18-.08.35-.15.53-.24.11-.05.21-.11.31-.17.27-.19.54-.38.79-.59.19-.16.37-.35.53-.55.26-.32.47-.68.63-1.06.2-.46.32-.94.3-1.45-.02-.76-.29-1.42-.76-2-.07-.09-.14-.17-.21-.26,0-.01.01-.02.02-.03.1.02.2.03.29.07.33.16.59.41.81.7.26.35.4.73.42,1.17.04.76-.21,1.45-.54,2.12-.08.15-.16.3-.25.45.08-.06.16-.12.23-.19.29-.34.58-.68.85-1.04.29-.37.51-.79.67-1.22.33-.87.47-1.78.43-2.71-.02-.55-.17-1.06-.54-1.49-.34-.39-.75-.68-1.23-.86-.41-.16-.84-.23-1.29-.21-.26.01-.51.03-.8.05Z"/>
        <path class="cls-10" d="M115.62,89.96c.28-.02.54-.04.8-.05.44-.02.88.05,1.29.21.48.18.89.47,1.23.86.37.43.52.94.54,1.49.04.93-.1,1.84-.43,2.71-.17.44-.39.85-.67,1.22-.27.35-.56.7-.85,1.04-.06.07-.14.13-.23.19.08-.15.17-.3.25-.45.33-.67.58-1.36.54-2.12-.02-.43-.16-.82-.42-1.17-.22-.29-.48-.54-.81-.7-.09-.04-.19-.05-.29-.07,0,.01-.01.02-.02.03.07.09.14.17.21.26.48.58.74,1.24.76,2,.01.51-.11.99-.3,1.45-.16.38-.37.74-.63,1.06-.16.2-.34.39-.53.55-.25.21-.52.4-.79.59-.1.07-.2.12-.31.17-.17.08-.35.16-.53.24-.34.15-.69.27-1.05.35-.26.06-.52.1-.77.16-.58.13-1.16.13-1.78.14.14-.05.24-.1.35-.14.19-.07.38-.14.57-.22.43-.18.83-.41,1.2-.69.3-.22.56-.48.77-.79.42-.63.53-1.31.22-2.02-.09-.21-.23-.38-.45-.47-.06-.02-.07,0-.1.04-.11.2-.22.42-.35.6-.11.16-.26.29-.41.41-.4.32-.87.42-1.37.38-.14-.01-.18.1-.25.17-.17.17-.36.29-.59.36-.09.03-.3-.08-.33-.16-.05-.11-.01-.21.12-.3.16-.1.32-.2.48-.29.03-.02.05-.04.07-.08-.03,0-.07,0-.1,0-.2-.02-.39-.05-.55-.19-.02-.02-.07-.03-.1-.03-.07,0-.14,0-.21,0-.23,0-.42-.13-.62-.23-.04-.02-.1-.04-.14-.03-.32.1-.63.03-.93-.1-.05-.02-.1-.08-.14-.12-.05-.06-.01-.12.05-.16.14-.1.3-.19.43-.31.22-.19.42-.4.62-.61.03-.03.04-.08.05-.12.01-.06,0-.13.04-.17.1-.14.02-.27-.02-.39-.12-.35-.22-.7-.2-1.07.01-.22.08-.41.21-.59.03-.03.03-.1.02-.14-.11-.47-.24-.94-.32-1.41-.05-.34-.03-.7-.04-1.05,0-.04,0-.07.02-.11.05-.15.18-.19.3-.08.21.21.42.43.63.63.13.12.26.25.45.31.08-.16.15-.32.25-.46.17-.26.34-.52.55-.75.23-.26.5-.5.77-.74.17-.14.36-.26.55-.38.38-.23.77-.43,1.21-.54.21-.05.42-.1.64-.15.43-.1.86-.1,1.3-.05.42.05.85.13,1.24.31.3.14.59.29.86.48.46.32.85.71,1.15,1.19.02.04.06.07.08.11.02.04.04.08.07.12-.13-.08-.24-.16-.36-.24-.24-.15-.49-.25-.77-.3-.15-.02-.3-.07-.45-.06-.25.01-.5.05-.75.1-.32.06-.59.21-.89.36ZM111.26,94.65s.02-.01.03-.02c-.05-.11-.08-.22-.15-.31-.24-.34-.49-.68-.83-.93-.3-.21-.67-.17-.76.24-.04.17-.03.35,0,.52.08.43.33.78.63,1.09.18.2.4.37.6.55.07.06.14.11.2.18.1.12.12.26.04.41.05.02.08.03.09.04.13-.19.25-.36.36-.54.06-.1.1-.23.11-.34.02-.14-.04-.21-.17-.26-.12-.05-.25-.1-.36-.17-.16-.11-.31-.23-.44-.37-.07-.08-.11-.2-.13-.31-.03-.13.05-.2.18-.16.08.02.15.07.22.12.13.09.26.18.38.27ZM109.92,96.38c-.02.14.07.18.13.24.18.17.38.29.64.29.07,0,.14-.03.2-.05-.13-.08-.27-.11-.37-.19-.12-.09-.22-.18-.38-.2-.07-.01-.14-.06-.22-.1Z"/>
        <path class="cls-15" d="M111.26,94.65c-.13-.09-.25-.18-.38-.27-.07-.05-.14-.09-.22-.12-.12-.04-.21.03-.18.16.03.11.06.23.13.31.13.14.28.26.44.37.11.07.24.12.36.17.13.06.19.12.17.26-.02.12-.06.24-.11.34-.1.18-.23.35-.36.54,0,0-.04-.02-.09-.04.07-.15.06-.29-.04-.41-.06-.07-.13-.12-.2-.18-.2-.18-.41-.35-.6-.55-.29-.31-.54-.66-.63-1.09-.03-.17-.04-.35,0-.52.09-.41.46-.45.76-.24.35.25.59.59.83.93.07.09.1.21.15.31,0,0-.02.01-.03.02Z"/>
        <path class="cls-15" d="M109.92,96.38c.08.04.15.08.22.1.15.03.26.11.38.2.1.08.24.11.37.19-.07.02-.14.05-.2.05-.25,0-.46-.12-.64-.29-.06-.06-.15-.1-.13-.24Z"/>
      </g>
    </g>
    <rect class="cls-3" x="26.84" y="23.18" width="162" height="190.94" rx="13.47" ry="13.47"/>
    <path class="cls-12" d="M39.82,23.18h4.53v190.94h-4.85c-7.26,0-13.15-5.89-13.15-13.15V36.65c0-7.43,6.04-13.47,13.47-13.47Z"/>
  </g>
  <g id="Ringlet">
    <g>
      <g>
        <line class="cls-5" x1="33.32" y1="189.81" x2="24.73" y2="191.24"/>
        <line class="cls-1" x1="33.32" y1="189.81" x2="24.73" y2="191.24"/>
      </g>
      <g>
        <line class="cls-5" x1="33.32" y1="174.81" x2="24.73" y2="176.24"/>
        <line class="cls-1" x1="33.32" y1="174.81" x2="24.73" y2="176.24"/>
      </g>
      <g>
        <line class="cls-5" x1="33.32" y1="159.81" x2="24.73" y2="161.24"/>
        <line class="cls-1" x1="33.32" y1="159.81" x2="24.73" y2="161.24"/>
      </g>
      <g>
        <line class="cls-5" x1="33.32" y1="144.81" x2="24.73" y2="146.24"/>
        <line class="cls-1" x1="33.32" y1="144.81" x2="24.73" y2="146.24"/>
      </g>
      <g>
        <line class="cls-5" x1="33.32" y1="129.81" x2="24.73" y2="131.24"/>
        <line class="cls-1" x1="33.32" y1="129.81" x2="24.73" y2="131.24"/>
      </g>
      <g>
        <line class="cls-5" x1="33.32" y1="114.81" x2="24.73" y2="116.24"/>
        <line class="cls-1" x1="33.32" y1="114.81" x2="24.73" y2="116.24"/>
      </g>
      <g>
        <line class="cls-5" x1="33.32" y1="99.81" x2="24.73" y2="101.24"/>
        <line class="cls-1" x1="33.32" y1="99.81" x2="24.73" y2="101.24"/>
      </g>
      <g>
        <line class="cls-5" x1="33.32" y1="84.81" x2="24.73" y2="86.24"/>
        <line class="cls-1" x1="33.32" y1="84.81" x2="24.73" y2="86.24"/>
      </g>
      <g>
        <line class="cls-5" x1="33.32" y1="69.81" x2="24.73" y2="71.24"/>
        <line class="cls-1" x1="33.32" y1="69.81" x2="24.73" y2="71.24"/>
      </g>
      <g>
        <line class="cls-5" x1="33.32" y1="54.81" x2="24.73" y2="56.24"/>
        <line class="cls-1" x1="33.32" y1="54.81" x2="24.73" y2="56.24"/>
      </g>
      <g>
        <line class="cls-5" x1="33.32" y1="39.81" x2="24.73" y2="41.24"/>
        <line class="cls-1" x1="33.32" y1="39.81" x2="24.73" y2="41.24"/>
      </g>
    </g>
    <g>
      <rect class="cls-13" x="123.99" y="105.96" width="178.9" height="18.84" rx="2.23" ry="2.23" transform="translate(98.06 328.81) rotate(-90)"/>
      <g>
        <path class="cls-11" d="M212.64,223.56l-8.05-17.5c-.27-.58.16-1.24.79-1.24h16.11c.64,0,1.06.66.79,1.24l-8.05,17.5c-.31.68-1.28.68-1.59,0Z"/>
        <path class="cls-14" d="M212.64,223.56l-3.34-7.27c-.27-.58.16-1.24.79-1.24h6.69c.64,0,1.06.66.79,1.24l-3.34,7.27c-.31.68-1.28.68-1.59,0Z"/>
      </g>
    </g>
    <g>
      <path class="cls-8" d="M113.71,60.94l28.28,48.98h-56.55l28.28-48.98M113.71,46.94l-40.4,69.98h80.8l-40.4-69.98h0Z"/>
      <path class="cls-8" d="M141.98,75.64l-28.28,48.98-28.28-48.98h56.55M154.11,68.64h-80.8l40.4,69.98,40.4-69.98h0Z"/>
    </g>
    <rect class="cls-9" x="206" y="28.69" width="6.32" height="173.36" rx="1.27" ry="1.27"/>
  </g>
  <g id="Page_Lines" data-name="Page Lines">
    <g>
      <line class="cls-4" x1="77.88" y1="188.47" x2="149.53" y2="188.47"/>
      <line class="cls-4" x1="77.88" y1="172.47" x2="149.53" y2="172.47"/>
      <line class="cls-4" x1="77.88" y1="156.47" x2="149.53" y2="156.47"/>
    </g>
  </g>
</svg>