<?xml version="1.0" encoding="UTF-8"?>
<svg xmlns="http://www.w3.org/2000/svg" xmlns:xlink="http://www.w3.org/1999/xlink" viewBox="0 0 202.63 201.39">
  <defs>
    <style>
      .cls-1 {
        stroke: #f2f2f2;
        stroke-width: 4px;
      }

      .cls-1, .cls-2, .cls-3, .cls-4, .cls-5 {
        stroke-miterlimit: 10;
      }

      .cls-1, .cls-4, .cls-5 {
        fill: none;
        stroke-linecap: round;
      }

      .cls-6 {
        fill: url(#linear-gradient);
      }

      .cls-6, .cls-7, .cls-8, .cls-9, .cls-10, .cls-11, .cls-12, .cls-13, .cls-14 {
        stroke-width: 0px;
      }

      .cls-2, .cls-3 {
        stroke: #000;
      }

      .cls-2, .cls-8 {
        fill: #e2e2e2;
      }

      .cls-7 {
        fill: #183755;
      }

      .cls-3 {
        fill: #f8f8f8;
      }

      .cls-8 {
        opacity: .19;
      }

      .cls-9 {
        fill: #000;
      }

      .cls-10 {
        fill: url(#linear-gradient-4);
      }

      .cls-11 {
        fill: url(#linear-gradient-2);
      }

      .cls-12 {
        fill: url(#linear-gradient-3);
      }

      .cls-13 {
        fill: url(#linear-gradient-5);
      }

      .cls-4 {
        stroke: #04172b;
        stroke-width: 5px;
      }

      .cls-14 {
        fill: #fff;
      }

      .cls-5 {
        stroke: #183755;
        stroke-width: 9px;
      }
    </style>
    <linearGradient id="linear-gradient" x1="19.72" y1="196.03" x2="19.72" y2="5.09" gradientUnits="userSpaceOnUse">
      <stop offset="0" stop-color="#04172b"/>
      <stop offset="1" stop-color="#1f527e"/>
    </linearGradient>
    <linearGradient id="linear-gradient-2" x1="15.13" y1="191.44" x2="15.13" y2=".5" xlink:href="#linear-gradient"/>
    <linearGradient id="linear-gradient-3" x1="123.68" y1="85.39" x2="227.81" y2="85.39" gradientTransform="translate(179.29 -102.2) rotate(60)" xlink:href="#linear-gradient"/>
    <linearGradient id="linear-gradient-4" x1="184.28" y1="178.7" x2="202.14" y2="178.7" gradientTransform="translate(0 264.71) scale(1 -.41)" gradientUnits="userSpaceOnUse">
      <stop offset="0" stop-color="#e47a2e"/>
      <stop offset="1" stop-color="#fffffd"/>
    </linearGradient>
    <linearGradient id="linear-gradient-5" x1="188.99" y1="166.17" x2="197.43" y2="166.17" gradientTransform="translate(0 264.71) scale(1 -.41)" gradientUnits="userSpaceOnUse">
      <stop offset="0" stop-color="#0d0d0d"/>
      <stop offset="1" stop-color="#707070"/>
    </linearGradient>
  </defs>
  <g id="Layer_4" data-name="Layer 4">
    <rect class="cls-2" x="10.72" y="5.09" width="162" height="190.94" rx="13.47" ry="13.47"/>
    <g>
      <path class="cls-14" d="M102.92,82.68h-20.41c0-7.61,0-15.21,0-22.82,6.8,0,13.61,0,20.41,0,0,7.61,0,15.21,0,22.82ZM87.72,82.45s0,.02,0,.03c.07,0,.13.01.2.01.44-.02.89-.04,1.33-.08.53-.05,1.05-.13,1.57-.2.63-.08,1.24-.22,1.84-.44.39-.14.78-.28,1.17-.43.72-.27,1.38-.66,2-1.1.62-.44,1.17-.94,1.65-1.52.8-.96,1.37-2.05,1.67-3.26.49-2.02.03-3.82-1.26-5.43-.09-.11-.17-.21-.27-.34.35-.05.59.11.83.25.4.24.71.59,1,.95.54.67.83,1.44.87,2.29.06,1.27-.28,2.44-.8,3.58-.18.39-.39.78-.58,1.16l.05.04c.13-.15.26-.29.37-.44.48-.6.97-1.2,1.42-1.82.55-.77.99-1.61,1.28-2.5.55-1.66.8-3.37.65-5.13-.06-.66-.22-1.3-.57-1.88-.6-.98-1.47-1.66-2.52-2.08-.53-.21-1.1-.35-1.68-.34-.62,0-1.24.03-1.89.05,1.93-1.07,3.79-1.22,5.62.27-.51-.94-1.17-1.71-1.95-2.37-.65-.55-1.37-.98-2.17-1.26-.56-.19-1.14-.34-1.72-.41-.72-.1-1.45-.08-2.18.04-.76.13-1.49.33-2.19.65-.6.27-1.16.6-1.69.99-.56.41-1.07.87-1.53,1.39-.52.59-.98,1.23-1.33,1.93-.09.19-.18.38-.28.59-.11-.05-.23-.08-.3-.15-.26-.24-.51-.49-.76-.74-.28-.29-.55-.59-.85-.86-.18-.17-.42-.08-.5.16-.02.08-.04.17-.04.25.02.63-.02,1.27.08,1.9.13.87.37,1.72.56,2.58.01.07.01.16-.02.21-.28.38-.39.81-.39,1.27,0,.6.14,1.18.33,1.74.1.28.2.53.04.82-.05.08-.03.19-.05.28,0,.05,0,.11-.04.15-.36.38-.7.76-1.08,1.12-.24.22-.52.4-.77.6-.19.15-.19.31.01.43.19.12.4.24.61.27.37.05.75.02,1.12.02.09,0,.21-.01.27.04.38.3.82.43,1.3.42.13,0,.23.03.35.11.18.12.4.21.61.27.15.05.31.05.49.07-.04.04-.05.08-.08.1-.27.17-.54.32-.8.49-.34.22-.45.45-.25.71.15.19.36.21.58.17.41-.06.67-.35.96-.61.12-.11.17-.33.41-.31.67.06,1.32-.04,1.92-.37.39-.21.72-.48,1-.8.35-.4.62-.85.8-1.35.04-.1.1-.12.2-.09.23.06.38.2.52.38.4.55.55,1.18.56,1.84.02,1.4-.64,2.49-1.63,3.42-.52.49-1.11.89-1.74,1.23-.53.28-1.09.5-1.65.75-.23.1-.46.18-.69.26Z"/>
      <path class="cls-9" d="M87.72,82.45c.23-.09.47-.16.69-.26.55-.24,1.12-.46,1.65-.75.63-.33,1.22-.74,1.74-1.23.99-.93,1.65-2.02,1.63-3.42,0-.66-.16-1.3-.56-1.84-.13-.18-.29-.32-.52-.38-.1-.03-.16,0-.2.09-.18.5-.45.96-.8,1.35-.28.32-.62.59-1,.8-.61.33-1.25.43-1.92.37-.24-.02-.28.19-.41.31-.29.26-.55.55-.96.61-.22.03-.43.02-.58-.17-.2-.26-.09-.49.25-.71.26-.17.54-.33.8-.49.03-.02.05-.05.08-.1-.18-.02-.35-.02-.49-.07-.21-.07-.43-.15-.61-.27-.12-.08-.22-.11-.35-.11-.48,0-.91-.12-1.3-.42-.06-.05-.18-.04-.27-.04-.37,0-.75.02-1.12-.02-.21-.03-.42-.15-.61-.27-.2-.13-.2-.28-.01-.43.26-.2.54-.38.77-.6.38-.36.72-.74,1.08-1.12.03-.03.03-.1.04-.15.02-.1,0-.21.05-.28.17-.29.06-.55-.04-.82-.2-.56-.33-1.14-.33-1.74,0-.47.11-.89.39-1.27.04-.05.04-.15.02-.21-.19-.86-.43-1.71-.56-2.58-.1-.62-.06-1.26-.08-1.9,0-.08.02-.17.04-.25.07-.24.31-.33.5-.16.3.27.56.58.85.86.25.25.5.5.76.74.08.07.19.1.3.15.1-.21.19-.4.28-.59.35-.71.81-1.34,1.33-1.93.46-.52.98-.98,1.53-1.39.53-.39,1.09-.72,1.69-.99.71-.31,1.43-.51,2.19-.65.73-.13,1.46-.14,2.18-.04.58.08,1.17.22,1.72.41.8.28,1.52.71,2.17,1.26.78.66,1.44,1.42,1.95,2.37-1.83-1.49-3.69-1.34-5.62-.27.65-.02,1.27-.05,1.89-.05.58,0,1.15.13,1.68.34,1.06.42,1.93,1.1,2.52,2.08.35.57.51,1.21.57,1.88.15,1.75-.1,3.46-.65,5.13-.3.9-.73,1.74-1.28,2.5-.45.62-.94,1.22-1.42,1.82-.12.15-.25.29-.37.44l-.05-.04c.19-.39.4-.77.58-1.16.51-1.14.86-2.31.8-3.58-.04-.86-.33-1.62-.87-2.29-.29-.36-.6-.71-1-.95-.23-.14-.48-.3-.83-.25.1.13.19.23.27.34,1.29,1.61,1.75,3.42,1.26,5.43-.3,1.21-.87,2.3-1.67,3.26-.48.58-1.03,1.08-1.65,1.52-.63.44-1.28.83-2,1.1-.39.15-.78.29-1.17.43-.6.21-1.21.36-1.84.44-.52.07-1.05.14-1.57.2-.44.04-.89.06-1.33.08-.07,0-.13,0-.2-.01,0-.01,0-.02,0-.03ZM88.45,72.44s.04-.02.06-.03c-.09-.2-.15-.41-.27-.58-.36-.49-.73-.97-1.13-1.43-.17-.2-.41-.35-.65-.46-.41-.18-.8.06-.94.51-.23.72-.01,1.38.32,2.01.42.8,1.03,1.44,1.72,2.01.14.12.28.25.4.38.2.23.2.49.08.76.09.03.15.06.18.07.16-.28.32-.54.47-.81.12-.22.25-.44.32-.67.1-.34-.03-.53-.36-.66-.49-.19-.93-.47-1.26-.88-.14-.18-.23-.43-.28-.66-.05-.2.13-.36.29-.29.15.06.28.15.41.24.23.16.45.33.67.5ZM86.14,75.62s-.03.04-.05.05c.04.07.07.16.12.22.12.12.24.25.38.35.27.2.56.35.9.33.11,0,.22-.07.33-.11,0-.02-.01-.04-.02-.07-.04-.02-.08-.03-.12-.05-.16-.07-.33-.12-.49-.2-.21-.1-.32-.35-.59-.38-.16-.02-.31-.1-.47-.16Z"/>
      <path class="cls-14" d="M88.45,72.44c-.22-.17-.44-.34-.67-.5-.13-.09-.27-.18-.41-.24-.16-.07-.34.09-.29.29.06.23.14.48.28.66.33.42.77.7,1.26.88.33.13.46.31.36.66-.07.23-.2.45-.32.67-.15.27-.31.53-.47.81-.03-.01-.09-.04-.18-.07.12-.27.13-.54-.08-.76-.12-.14-.26-.26-.4-.38-.69-.57-1.29-1.21-1.72-2.01-.33-.63-.54-1.3-.32-2.01.14-.44.53-.69.94-.51.24.11.48.26.65.46.4.46.77.94,1.13,1.43.12.17.18.39.27.58-.02.01-.04.02-.06.03Z"/>
      <path class="cls-14" d="M86.14,75.62c.16.05.31.14.47.16.27.03.38.28.59.38.16.07.33.13.49.2.04.02.08.03.12.05,0,.02.01.04.02.07-.11.04-.22.1-.33.11-.34.02-.64-.13-.9-.33-.14-.1-.26-.22-.38-.35-.06-.06-.08-.15-.12-.22.02-.02.03-.04.05-.05Z"/>
    </g>
    <path class="cls-6" d="M24.19,5.09h4.53v190.94h-4.85c-7.26,0-13.15-5.89-13.15-13.15V18.56c0-7.43,6.04-13.47,13.47-13.47Z"/>
    <rect class="cls-3" x="6.13" y=".5" width="162" height="190.94" rx="13.47" ry="13.47"/>
    <path class="cls-11" d="M19.6.5h4.53v190.94h-4.85c-7.26,0-13.15-5.89-13.15-13.15V13.97C6.13,6.54,12.16.5,19.6.5Z"/>
  </g>
  <g id="Ringlet">
    <g>
      <g>
        <line class="cls-5" x1="13.1" y1="167.13" x2="4.5" y2="168.56"/>
        <line class="cls-1" x1="13.1" y1="167.13" x2="4.5" y2="168.56"/>
      </g>
      <g>
        <line class="cls-5" x1="13.1" y1="152.13" x2="4.5" y2="153.56"/>
        <line class="cls-1" x1="13.1" y1="152.13" x2="4.5" y2="153.56"/>
      </g>
      <g>
        <line class="cls-5" x1="13.1" y1="137.13" x2="4.5" y2="138.56"/>
        <line class="cls-1" x1="13.1" y1="137.13" x2="4.5" y2="138.56"/>
      </g>
      <g>
        <line class="cls-5" x1="13.1" y1="122.13" x2="4.5" y2="123.56"/>
        <line class="cls-1" x1="13.1" y1="122.13" x2="4.5" y2="123.56"/>
      </g>
      <g>
        <line class="cls-5" x1="13.1" y1="107.13" x2="4.5" y2="108.56"/>
        <line class="cls-1" x1="13.1" y1="107.13" x2="4.5" y2="108.56"/>
      </g>
      <g>
        <line class="cls-5" x1="13.1" y1="92.13" x2="4.5" y2="93.56"/>
        <line class="cls-1" x1="13.1" y1="92.13" x2="4.5" y2="93.56"/>
      </g>
      <g>
        <line class="cls-5" x1="13.1" y1="77.13" x2="4.5" y2="78.56"/>
        <line class="cls-1" x1="13.1" y1="77.13" x2="4.5" y2="78.56"/>
      </g>
      <g>
        <line class="cls-5" x1="13.1" y1="62.13" x2="4.5" y2="63.56"/>
        <line class="cls-1" x1="13.1" y1="62.13" x2="4.5" y2="63.56"/>
      </g>
      <g>
        <line class="cls-5" x1="13.1" y1="47.13" x2="4.5" y2="48.56"/>
        <line class="cls-1" x1="13.1" y1="47.13" x2="4.5" y2="48.56"/>
      </g>
      <g>
        <line class="cls-5" x1="13.1" y1="32.13" x2="4.5" y2="33.56"/>
        <line class="cls-1" x1="13.1" y1="32.13" x2="4.5" y2="33.56"/>
      </g>
      <g>
        <line class="cls-5" x1="13.1" y1="17.13" x2="4.5" y2="18.56"/>
        <line class="cls-1" x1="13.1" y1="17.13" x2="4.5" y2="18.56"/>
      </g>
    </g>
    <g>
      <rect class="cls-12" x="103.76" y="83.28" width="178.9" height="18.84" rx="2.23" ry="2.23" transform="translate(100.51 285.91) rotate(-90)"/>
      <g>
        <path class="cls-10" d="M192.42,200.88l-8.05-17.5c-.27-.58.16-1.24.79-1.24h16.11c.64,0,1.06.66.79,1.24l-8.05,17.5c-.31.68-1.28.68-1.59,0Z"/>
        <path class="cls-13" d="M192.42,200.88l-3.34-7.27c-.27-.58.16-1.24.79-1.24h6.69c.64,0,1.06.66.79,1.24l-3.34,7.27c-.31.68-1.28.68-1.59,0Z"/>
      </g>
    </g>
    <g>
      <path class="cls-7" d="M93.48,38.26l28.28,48.98h-56.55l28.28-48.98M93.48,24.26l-40.4,69.98h80.8L93.48,24.26h0Z"/>
      <path class="cls-7" d="M121.76,52.97l-28.28,48.98-28.28-48.98h56.55M133.88,45.97H53.08l40.4,69.98,40.4-69.98h0Z"/>
    </g>
    <rect class="cls-8" x="185.78" y="6.02" width="6.32" height="173.36" rx="1.27" ry="1.27"/>
  </g>
  <g id="Page_Lines" data-name="Page Lines">
    <g>
      <line class="cls-4" x1="57.66" y1="165.79" x2="129.3" y2="165.79"/>
      <line class="cls-4" x1="57.66" y1="149.79" x2="129.3" y2="149.79"/>
      <line class="cls-4" x1="57.66" y1="133.79" x2="129.3" y2="133.79"/>
    </g>
  </g>
</svg>