<?xml version="1.0" encoding="UTF-8"?>
<svg xmlns="http://www.w3.org/2000/svg" xmlns:xlink="http://www.w3.org/1999/xlink" viewBox="0 0 173.22 196.53">
  <defs>
    <style>
      .cls-1, .cls-2, .cls-3, .cls-4, .cls-5 {
        stroke-miterlimit: 10;
      }

      .cls-1, .cls-3 {
        stroke: #000;
      }

      .cls-1, .cls-6 {
        fill: #fff;
      }

      .cls-2 {
        stroke: #f2f2f2;
        stroke-width: 4px;
      }

      .cls-2, .cls-4, .cls-5 {
        fill: none;
        stroke-linecap: round;
      }

      .cls-7 {
        fill: url(#linear-gradient);
      }

      .cls-7, .cls-8, .cls-9, .cls-10, .cls-6 {
        stroke-width: 0px;
      }

      .cls-3 {
        fill: #e2e2e2;
      }

      .cls-8 {
        fill: #183755;
      }

      .cls-9 {
        fill: #000;
      }

      .cls-10 {
        fill: url(#linear-gradient-2);
      }

      .cls-4 {
        stroke: #04172b;
        stroke-width: 5px;
      }

      .cls-5 {
        stroke: #183755;
        stroke-width: 9px;
      }
    </style>
    <linearGradient id="linear-gradient" x1="19.72" y1="196.03" x2="19.72" y2="5.09" gradientUnits="userSpaceOnUse">
      <stop offset="0" stop-color="#04172b"/>
      <stop offset="1" stop-color="#1f527e"/>
    </linearGradient>
    <linearGradient id="linear-gradient-2" x1="15.13" y1="191.44" x2="15.13" y2=".5" xlink:href="#linear-gradient"/>
  </defs>
  <g id="Layer_4" data-name="Layer 4">
    <rect class="cls-3" x="10.72" y="5.09" width="162" height="190.94" rx="13.47" ry="13.47"/>
    <g>
      <path class="cls-6" d="M104.07,78.65c-7.06,0-14.12,0-21.18,0,0-6.47,0-12.93,0-19.4,7.06,0,14.12,0,21.18,0,0,6.47,0,12.93,0,19.4ZM88.14,73.54s0,.03.01.05c-.21.11-.42.21-.62.32-.15.08-.31.16-.46.26-.23.16-.22.41.03.53.16.07.36.11.54.09.39-.05.71-.27.97-.53.2-.2.41-.24.68-.24,1.62.02,2.83-.67,3.59-2.11.08-.15.15-.16.28-.11.38.14.62.42.79.77.44.93.35,1.83-.17,2.69-.35.58-.83,1.04-1.38,1.43-1.03.73-2.17,1.2-3.36,1.58-.23.07-.47.14-.7.21.07.03.14.03.21.03,1.27,0,2.52-.1,3.77-.34,1.55-.29,3.04-.75,4.41-1.54,1.48-.86,2.62-2.02,3.29-3.61.31-.73.43-1.5.32-2.29-.16-1.16-.74-2.1-1.58-2.9-.05-.05-.12-.07-.19-.11.02-.03.04-.05.06-.08.09,0,.19,0,.27.03.24.09.5.15.7.29,1.56,1.01,2.04,2.27,1.67,3.88-.22.96-.66,1.81-1.21,2.62-.04.06-.07.11-.11.17.02.01.03.03.05.04.44-.43.9-.84,1.33-1.29,1.81-1.87,2.64-4.13,2.56-6.72-.03-.85-.27-1.63-.87-2.27-.46-.5-1.01-.89-1.62-1.17-1.2-.56-2.46-.69-3.76-.58-.22.02-.44.05-.66.08,0-.02,0-.04,0-.06,1.95-.88,3.88-1.02,5.79.24-.04-.06-.05-.08-.07-.11-.92-1.27-2.11-2.21-3.58-2.74-3.03-1.09-5.94-.76-8.7.87-1.36.8-2.49,1.84-3.22,3.28,0,.02-.03.02-.06.05-.11-.06-.24-.11-.35-.19-.27-.21-.53-.43-.79-.65-.25-.21-.49-.45-.76-.63-.34-.23-.59-.11-.6.3-.01.54-.03,1.1.07,1.62.14.73.38,1.44.57,2.16.02.07,0,.19-.04.25-.25.31-.37.65-.37,1.04,0,.54.16,1.05.37,1.54.09.21.21.41.03.63-.04.05-.03.13-.05.19-.04.11-.08.23-.15.31-.48.47-1,.89-1.6,1.22-.14.08-.24.21-.36.32.14.11.26.25.42.31.48.21,1,.18,1.51.13.12-.01.26,0,.36.06.43.22.89.35,1.38.33.06,0,.13-.01.18.02.36.24.76.34,1.2.35Z"/>
      <path class="cls-9" d="M88.14,73.54c-.43,0-.83-.11-1.2-.35-.04-.03-.12-.02-.18-.02-.49.02-.94-.11-1.38-.33-.1-.05-.24-.07-.36-.06-.51.05-1.02.08-1.51-.13-.16-.07-.28-.21-.42-.31.12-.11.22-.24.36-.32.59-.33,1.11-.75,1.6-1.22.08-.08.11-.2.15-.31.03-.06.01-.15.05-.19.18-.22.06-.42-.03-.63-.21-.49-.36-1-.37-1.54,0-.39.12-.74.37-1.04.05-.06.06-.17.04-.25-.19-.72-.43-1.43-.57-2.16-.1-.53-.08-1.08-.07-1.62,0-.4.26-.52.6-.3.27.18.51.42.76.63.26.22.52.44.79.65.1.08.23.13.35.19.03-.02.05-.03.06-.05.73-1.43,1.86-2.48,3.22-3.28,2.76-1.63,5.67-1.96,8.7-.87,1.47.53,2.66,1.47,3.58,2.74.02.03.04.06.07.11-1.91-1.26-3.84-1.12-5.79-.24,0,.02,0,.04,0,.06.22-.03.44-.06.66-.08,1.3-.11,2.56.02,3.76.58.62.29,1.16.68,1.62,1.17.59.64.84,1.42.87,2.27.08,2.59-.76,4.85-2.56,6.72-.43.44-.89.86-1.33,1.29-.02-.01-.03-.03-.05-.04.04-.06.07-.12.11-.17.55-.81.99-1.66,1.21-2.62.36-1.61-.11-2.87-1.67-3.88-.21-.14-.47-.2-.7-.29-.08-.03-.18-.02-.27-.03-.02.03-.04.05-.06.08.06.04.14.06.19.11.84.8,1.42,1.74,1.58,2.9.11.79-.01,1.55-.32,2.29-.67,1.6-1.82,2.76-3.29,3.61-1.37.8-2.86,1.26-4.41,1.54-1.25.23-2.5.34-3.77.34-.07,0-.13,0-.21-.03.23-.07.47-.14.7-.21,1.19-.38,2.34-.85,3.36-1.58.55-.39,1.03-.85,1.38-1.43.53-.87.61-1.76.17-2.69-.16-.35-.4-.63-.79-.77-.13-.05-.21-.03-.28.11-.76,1.45-1.97,2.14-3.59,2.11-.27,0-.48.04-.68.24-.27.27-.59.49-.97.53-.17.02-.38-.01-.54-.09-.25-.12-.26-.36-.03-.53.14-.1.3-.18.46-.26.21-.11.42-.21.62-.32,0-.02,0-.03-.01-.05ZM89.06,69.97s.03-.02.05-.04c-.07-.15-.11-.32-.22-.43-.39-.44-.79-.88-1.22-1.28-.19-.18-.46-.31-.71-.4-.44-.16-.9.11-.99.55-.04.2-.05.42-.02.62.08.55.38,1,.73,1.41.48.57,1.07,1.01,1.68,1.43.34.24.4.39.29.79.06.03.13.05.19.08.09-.16.16-.31.25-.45.1-.14.22-.25.32-.38.06-.08.13-.18.16-.27.14-.36.11-.57-.31-.73-.39-.14-.77-.34-1.12-.58-.2-.13-.34-.37-.46-.59-.05-.08-.02-.25.04-.33.05-.06.22-.06.31-.02.26.11.5.26.74.4.1.06.2.13.3.19ZM86.66,72.65s-.03.04-.05.06c.02.05.03.1.06.13.39.39.85.63,1.41.64.1,0,.21-.07.33-.11-.29-.12-.59-.16-.77-.33-.3-.27-.68-.21-.98-.39Z"/>
      <path class="cls-6" d="M89.06,69.97c-.1-.06-.19-.14-.3-.19-.24-.14-.49-.29-.74-.4-.09-.04-.26-.03-.31.02-.06.07-.09.25-.04.33.13.21.27.45.46.59.35.23.73.43,1.12.58.43.16.45.37.31.73-.04.1-.1.19-.16.27-.1.13-.23.25-.32.38-.09.14-.16.29-.25.45-.06-.03-.13-.06-.19-.08.11-.4.05-.56-.29-.79-.61-.42-1.2-.86-1.68-1.43-.35-.42-.65-.86-.73-1.41-.03-.2-.02-.42.02-.62.09-.45.55-.71.99-.55.25.09.52.22.71.4.43.4.83.84,1.22,1.28.1.12.15.29.22.43-.02.01-.03.02-.05.04Z"/>
      <path class="cls-6" d="M86.66,72.65c.3.19.68.13.98.39.19.17.48.21.77.33-.12.04-.23.11-.33.11-.56-.01-1.02-.26-1.41-.64-.03-.03-.04-.09-.06-.13.02-.02.03-.04.05-.06Z"/>
    </g>
    <path class="cls-7" d="M24.19,5.09h4.53v190.94h-4.85c-7.26,0-13.15-5.89-13.15-13.15V18.56c0-7.43,6.04-13.47,13.47-13.47Z"/>
    <rect class="cls-1" x="7.61" y=".5" width="162" height="190.94" rx="13.47" ry="13.47"/>
    <path class="cls-10" d="M19.6.5h4.53v190.94h-4.85c-7.26,0-13.15-5.89-13.15-13.15V13.97C6.13,6.54,12.16.5,19.6.5Z"/>
  </g>
  <g id="Ringlet">
    <g>
      <g>
        <line class="cls-5" x1="13.1" y1="167.13" x2="4.5" y2="168.56"/>
        <line class="cls-2" x1="13.1" y1="167.13" x2="4.5" y2="168.56"/>
      </g>
      <g>
        <line class="cls-5" x1="13.1" y1="152.13" x2="4.5" y2="153.56"/>
        <line class="cls-2" x1="13.1" y1="152.13" x2="4.5" y2="153.56"/>
      </g>
      <g>
        <line class="cls-5" x1="13.1" y1="137.13" x2="4.5" y2="138.56"/>
        <line class="cls-2" x1="13.1" y1="137.13" x2="4.5" y2="138.56"/>
      </g>
      <g>
        <line class="cls-5" x1="13.1" y1="122.13" x2="4.5" y2="123.56"/>
        <line class="cls-2" x1="13.1" y1="122.13" x2="4.5" y2="123.56"/>
      </g>
      <g>
        <line class="cls-5" x1="13.1" y1="107.13" x2="4.5" y2="108.56"/>
        <line class="cls-2" x1="13.1" y1="107.13" x2="4.5" y2="108.56"/>
      </g>
      <g>
        <line class="cls-5" x1="13.1" y1="92.13" x2="4.5" y2="93.56"/>
        <line class="cls-2" x1="13.1" y1="92.13" x2="4.5" y2="93.56"/>
      </g>
      <g>
        <line class="cls-5" x1="13.1" y1="77.13" x2="4.5" y2="78.56"/>
        <line class="cls-2" x1="13.1" y1="77.13" x2="4.5" y2="78.56"/>
      </g>
      <g>
        <line class="cls-5" x1="13.1" y1="62.13" x2="4.5" y2="63.56"/>
        <line class="cls-2" x1="13.1" y1="62.13" x2="4.5" y2="63.56"/>
      </g>
      <g>
        <line class="cls-5" x1="13.1" y1="47.13" x2="4.5" y2="48.56"/>
        <line class="cls-2" x1="13.1" y1="47.13" x2="4.5" y2="48.56"/>
      </g>
      <g>
        <line class="cls-5" x1="13.1" y1="32.13" x2="4.5" y2="33.56"/>
        <line class="cls-2" x1="13.1" y1="32.13" x2="4.5" y2="33.56"/>
      </g>
      <g>
        <line class="cls-5" x1="13.1" y1="17.13" x2="4.5" y2="18.56"/>
        <line class="cls-2" x1="13.1" y1="17.13" x2="4.5" y2="18.56"/>
      </g>
    </g>
    <g>
      <path class="cls-8" d="M93.48,38.26l28.28,48.98h-56.55l28.28-48.98M93.48,24.26l-40.4,69.98h80.8L93.48,24.26h0Z"/>
      <path class="cls-8" d="M121.76,52.97l-28.28,48.98-28.28-48.98h56.55M133.88,45.97H53.08l40.4,69.97,40.4-69.97h0Z"/>
    </g>
  </g>
  <g id="Page_Lines" data-name="Page Lines">
    <g>
      <line class="cls-4" x1="57.66" y1="165.79" x2="129.3" y2="165.79"/>
      <line class="cls-4" x1="57.66" y1="149.79" x2="129.3" y2="149.79"/>
      <line class="cls-4" x1="57.66" y1="133.79" x2="129.3" y2="133.79"/>
    </g>
  </g>
</svg>